<?xml version="1.0" encoding="UTF-8" standalone="no"?>
<svg
   width="64"
   height="64"
   version="1"
   id="svg16"
   sodipodi:docname="GPG-Key4.svg"
   inkscape:version="1.1.1 (3bf5ae0d25, 2021-09-20)"
   inkscape:export-filename="/home/melber/MX-tools/export/GPG-Key4.png"
   inkscape:export-xdpi="96"
   inkscape:export-ydpi="96"
   xmlns:inkscape="http://www.inkscape.org/namespaces/inkscape"
   xmlns:sodipodi="http://sodipodi.sourceforge.net/DTD/sodipodi-0.dtd"
   xmlns="http://www.w3.org/2000/svg"
   xmlns:svg="http://www.w3.org/2000/svg">
  <defs
     id="defs20" />
  <sodipodi:namedview
     id="namedview18"
     pagecolor="#ffffff"
     bordercolor="#666666"
     borderopacity="1.0"
     inkscape:pageshadow="2"
     inkscape:pageopacity="0.0"
     inkscape:pagecheckerboard="0"
     showgrid="true"
     inkscape:zoom="6"
     inkscape:cx="61.833333"
     inkscape:cy="33.25"
     inkscape:window-width="1366"
     inkscape:window-height="693"
     inkscape:window-x="0"
     inkscape:window-y="0"
     inkscape:window-maximized="1"
     inkscape:current-layer="layer1"
     width="64px"
     inkscape:snap-bbox="true">
    <inkscape:grid
       type="xygrid"
       id="grid1407"
       empspacing="2"
       color="#ff3f41"
       opacity="0.1254902"
       snapvisiblegridlinesonly="false"
       dotted="false"
       spacingx="1" />
  </sodipodi:namedview>
  <g
     inkscape:groupmode="layer"
     id="layer1"
     inkscape:label="hinter"
     style="display:inline">
    <rect
       style="fill:#38a334;stroke-width:0.973328"
       width="53.052631"
       height="56"
       x="-57.052631"
       y="-60"
       rx="2.6526315"
       ry="2.8"
       transform="matrix(0,-1,-1,0,0,0)"
       id="rect4" />
    <rect
       style="opacity:0.2;stroke-width:0.973328"
       width="53.052631"
       height="56"
       x="-58"
       y="-60"
       rx="2.6526315"
       ry="2.8"
       transform="matrix(0,-1,-1,0,0,0)"
       id="rect2" />
  </g>
  <g
     inkscape:groupmode="layer"
     id="layer2"
     inkscape:label="check"
     style="display:inline">
    <g
       id="g1403"
       transform="translate(-0.95704)">
      <path
         style="opacity:0.2"
         d="M 63.958,45.848 A 16,16 0 0 1 48,61 16,16 0 0 1 32.042,46.152 16,16 0 0 0 32,47 16,16 0 0 0 48,63 16,16 0 0 0 64,47 16,16 0 0 0 63.95704,45.84766 Z"
         id="path26" />
      <circle
         style="fill:#69db3e"
         cx="48"
         cy="46"
         r="16"
         id="circle28" />
      <g
         transform="rotate(-45,53.045941,44.232233)"
         id="g34">
        <rect
           style="fill:#ffffff"
           width="4"
           height="13"
           x="42"
           y="34"
           id="rect30" />
        <rect
           style="fill:#ffffff"
           width="4"
           height="18"
           x="-47"
           y="42"
           transform="rotate(-90)"
           id="rect32" />
      </g>
    </g>
  </g>
  <g
     inkscape:groupmode="layer"
     id="layer3"
     inkscape:label="key"
     style="display:inline">
    <g
       id="g1411"
       transform="translate(-0.182836,0.637965)">
      <path
         style="display:inline;opacity:0.2"
         d="m 7.6125245,34.362035 a 10,10 0 0 1 9.9999995,-10 10,10 0 0 1 4.402344,1.027344 L 39.042212,8.362035 h 4.570312 v 4.570312 l -2,2 v 5.429688 h -5.429688 l -2.570312,2.570312 v 5.429688 h -5.429688 l -1.601562,1.601562 a 10,10 0 0 1 1.03125,4.398438 10,10 0 0 1 -10,10 10,10 0 0 1 -9.9999995,-10 z m 3.9999995,2 a 4,4 0 0 0 4,4 4,4 0 0 0 4,-4 4,4 0 0 0 -4,-4 4,4 0 0 0 -4,4 z"
         id="path6" />
      <path
         style="display:inline;fill:#ffffff"
         d="m 7.6125245,33.362035 a 10,10 0 0 1 9.9999995,-10 10,10 0 0 1 4.402344,1.027344 L 39.042212,7.3620353 h 4.570312 v 4.5703117 l -2,2 v 5.429688 h -5.429688 l -2.570312,2.570312 v 5.429688 h -5.429688 l -1.601562,1.601562 a 10,10 0 0 1 1.03125,4.398438 10,10 0 0 1 -10,10 10,10 0 0 1 -9.9999995,-10 z m 3.9999995,2 a 4,4 0 0 0 4,4 4,4 0 0 0 4,-4 4,4 0 0 0 -4,-4 4,4 0 0 0 -4,4 z"
         id="path8" />
    </g>
  </g>
  <path
     style="opacity:0.1;fill:#ffffff"
     d="M 7,4 C 5.338,4 4,5.338 4,7 V 8 C 4,6.338 5.338,5 7,5 h 50 c 1.662,0 3,1.338 3,3 V 7 C 60,5.338 58.662,4 57,4 Z"
     id="path10" />
</svg>
